<svg xmlns="http://www.w3.org/2000/svg" version="1.1" xmlns:xlink="http://www.w3.org/1999/xlink" width="512" height="512" x="0" y="0" viewBox="0 0 24 24" style="enable-background:new 0 0 512 512" xml:space="preserve" class=""><g><path fill="#000000" fill-rule="evenodd" d="M2.5 6A3.5 3.5 0 0 1 6 2.5h12A3.5 3.5 0 0 1 21.5 6v10a3.5 3.5 0 0 1-3.5 3.5h-1.627a4.5 4.5 0 0 0-3.457 1.62l-.6.719a.5.5 0 0 1-.737.033l-1.054-1.054A4.5 4.5 0 0 0 7.343 19.5H6A3.5 3.5 0 0 1 2.5 16zm3 2a.5.5 0 0 1 .5-.5h12a.5.5 0 0 1 0 1H6a.5.5 0 0 1-.5-.5zm.5 4.5a.5.5 0 0 0 0 1h6a.5.5 0 0 0 0-1z" clip-rule="evenodd" opacity="1" data-original="#000000" class=""></path></g></svg>